<?xml version="1.0" encoding="UTF-8" standalone="no"?>
<!DOCTYPE svg PUBLIC "-//W3C//DTD SVG 1.1//EN"
 "http://www.w3.org/Graphics/SVG/1.1/DTD/svg11.dtd">
<!-- Generated by graphviz version 12.1.1 (20240910.0053)
 -->
<!-- Title: INFRA Pages: 1 -->
<svg width="842pt" height="296pt"
 viewBox="0.00 0.00 841.90 296.00" xmlns="http://www.w3.org/2000/svg" xmlns:xlink="http://www.w3.org/1999/xlink">
<g id="graph0" class="graph" transform="scale(1 1) rotate(0) translate(4 292)">
<title>INFRA</title>
<polygon fill="white" stroke="none" points="-4,4 -4,-292 837.9,-292 837.9,4 -4,4"/>
<!-- GitHubTokenSecret -->
<g id="node1" class="node">
<title>GitHubTokenSecret</title>
<path fill="#fff5cd" stroke="black" stroke-width="2" d="M215.95,-65.45C215.95,-69.07 167.55,-72 107.98,-72 48.4,-72 0,-69.07 0,-65.45 0,-65.45 0,-6.55 0,-6.55 0,-2.93 48.4,0 107.98,0 167.55,0 215.95,-2.93 215.95,-6.55 215.95,-6.55 215.95,-65.45 215.95,-65.45"/>
<path fill="none" stroke="black" stroke-width="2" d="M215.95,-65.45C215.95,-61.84 167.55,-58.91 107.98,-58.91 48.4,-58.91 0,-61.84 0,-65.45"/>
<text text-anchor="middle" x="107.98" y="-40.2" font-family="Arial" font-size="14.00">GitHubTokenSecret</text>
<text text-anchor="middle" x="107.98" y="-23.4" font-family="Arial" font-size="14.00">(AWS::SecretsManager::Secret)</text>
</g>
<!-- CommonLambdaRole -->
<g id="node2" class="node">
<title>CommonLambdaRole</title>
<path fill="#e6e6e6" stroke="black" stroke-width="2" d="M374.06,-72C374.06,-72 245.89,-72 245.89,-72 239.89,-72 233.89,-66 233.89,-60 233.89,-60 233.89,-12 233.89,-12 233.89,-6 239.89,0 245.89,0 245.89,0 374.06,0 374.06,0 380.06,0 386.06,-6 386.06,-12 386.06,-12 386.06,-60 386.06,-60 386.06,-66 380.06,-72 374.06,-72"/>
<text text-anchor="middle" x="309.98" y="-40.2" font-family="Arial" font-size="14.00">CommonLambdaRole</text>
<text text-anchor="middle" x="309.98" y="-23.4" font-family="Arial" font-size="14.00">(AWS::IAM::Role)</text>
</g>
<!-- GitLayer -->
<g id="node3" class="node">
<title>GitLayer</title>
<path fill="#b7e0ff" stroke="black" stroke-width="2" d="M597.9,-72C597.9,-72 416.05,-72 416.05,-72 410.05,-72 404.05,-66 404.05,-60 404.05,-60 404.05,-12 404.05,-12 404.05,-6 410.05,0 416.05,0 416.05,0 597.9,0 597.9,0 603.9,0 609.9,-6 609.9,-12 609.9,-12 609.9,-60 609.9,-60 609.9,-66 603.9,-72 597.9,-72"/>
<text text-anchor="middle" x="506.98" y="-40.2" font-family="Arial" font-size="14.00">GitLayer</text>
<text text-anchor="middle" x="506.98" y="-23.4" font-family="Arial" font-size="14.00">(AWS::Lambda::LayerVersion)</text>
</g>
<!-- DependencyLayer -->
<g id="node4" class="node">
<title>DependencyLayer</title>
<path fill="#b7e0ff" stroke="black" stroke-width="2" d="M821.9,-72C821.9,-72 640.05,-72 640.05,-72 634.05,-72 628.05,-66 628.05,-60 628.05,-60 628.05,-12 628.05,-12 628.05,-6 634.05,0 640.05,0 640.05,0 821.9,0 821.9,0 827.9,0 833.9,-6 833.9,-12 833.9,-12 833.9,-60 833.9,-60 833.9,-66 827.9,-72 821.9,-72"/>
<text text-anchor="middle" x="730.98" y="-40.2" font-family="Arial" font-size="14.00">DependencyLayer</text>
<text text-anchor="middle" x="730.98" y="-23.4" font-family="Arial" font-size="14.00">(AWS::Lambda::LayerVersion)</text>
</g>
<!-- CheckProjectStatus -->
<g id="node5" class="node">
<title>CheckProjectStatus</title>
<path fill="#b7e0ff" stroke="black" stroke-width="2" d="M777.51,-180C777.51,-180 624.44,-180 624.44,-180 618.44,-180 612.44,-174 612.44,-168 612.44,-168 612.44,-120 612.44,-120 612.44,-114 618.44,-108 624.44,-108 624.44,-108 777.51,-108 777.51,-108 783.51,-108 789.51,-114 789.51,-120 789.51,-120 789.51,-168 789.51,-168 789.51,-174 783.51,-180 777.51,-180"/>
<text text-anchor="middle" x="700.98" y="-148.2" font-family="Arial" font-size="14.00">CheckProjectStatus</text>
<text text-anchor="middle" x="700.98" y="-131.4" font-family="Arial" font-size="14.00">(AWS::Lambda::Function)</text>
</g>
<!-- CheckProjectStatus&#45;&gt;CommonLambdaRole -->
<g id="edge3" class="edge">
<title>CheckProjectStatus&#45;&gt;CommonLambdaRole</title>
<path fill="none" stroke="black" d="M612.1,-110.25C609.37,-109.46 606.66,-108.71 603.98,-108 516.32,-84.83 487.72,-97.08 397.2,-72.4"/>
<polygon fill="black" stroke="black" points="398.18,-69.04 387.61,-69.7 396.28,-75.78 398.18,-69.04"/>
</g>
<!-- CheckProjectStatus&#45;&gt;GitLayer -->
<g id="edge1" class="edge">
<title>CheckProjectStatus&#45;&gt;GitLayer</title>
<path fill="none" stroke="black" d="M636.11,-107.56C618.63,-98.01 599.59,-87.61 581.63,-77.79"/>
<polygon fill="black" stroke="black" points="583.57,-74.86 573.11,-73.14 580.21,-81 583.57,-74.86"/>
</g>
<!-- CheckProjectStatus&#45;&gt;DependencyLayer -->
<g id="edge2" class="edge">
<title>CheckProjectStatus&#45;&gt;DependencyLayer</title>
<path fill="none" stroke="black" d="M710.97,-107.7C713.19,-99.84 715.58,-91.38 717.91,-83.15"/>
<polygon fill="black" stroke="black" points="721.26,-84.17 720.62,-73.6 714.53,-82.27 721.26,-84.17"/>
</g>
<!-- SyncRepositories -->
<g id="node6" class="node">
<title>SyncRepositories</title>
<path fill="#b7e0ff" stroke="black" stroke-width="2" d="M387.51,-180C387.51,-180 234.44,-180 234.44,-180 228.44,-180 222.44,-174 222.44,-168 222.44,-168 222.44,-120 222.44,-120 222.44,-114 228.44,-108 234.44,-108 234.44,-108 387.51,-108 387.51,-108 393.51,-108 399.51,-114 399.51,-120 399.51,-120 399.51,-168 399.51,-168 399.51,-174 393.51,-180 387.51,-180"/>
<text text-anchor="middle" x="310.98" y="-148.2" font-family="Arial" font-size="14.00">SyncRepositories</text>
<text text-anchor="middle" x="310.98" y="-131.4" font-family="Arial" font-size="14.00">(AWS::Lambda::Function)</text>
</g>
<!-- SyncRepositories&#45;&gt;GitHubTokenSecret -->
<g id="edge7" class="edge">
<title>SyncRepositories&#45;&gt;GitHubTokenSecret</title>
<path fill="none" stroke="black" d="M243.1,-107.56C224.44,-97.81 204.07,-87.18 184.93,-77.18"/>
<polygon fill="black" stroke="black" points="186.58,-74.1 176.1,-72.57 183.34,-80.3 186.58,-74.1"/>
</g>
<!-- SyncRepositories&#45;&gt;CommonLambdaRole -->
<g id="edge6" class="edge">
<title>SyncRepositories&#45;&gt;CommonLambdaRole</title>
<path fill="none" stroke="black" d="M310.64,-107.7C310.57,-99.93 310.49,-91.57 310.41,-83.43"/>
<polygon fill="black" stroke="black" points="313.92,-83.62 310.32,-73.66 306.92,-83.69 313.92,-83.62"/>
</g>
<!-- SyncRepositories&#45;&gt;GitLayer -->
<g id="edge4" class="edge">
<title>SyncRepositories&#45;&gt;GitLayer</title>
<path fill="none" stroke="black" d="M376.51,-107.56C394.17,-98.01 413.4,-87.61 431.55,-77.79"/>
<polygon fill="black" stroke="black" points="433.04,-80.97 440.17,-73.13 429.71,-74.81 433.04,-80.97"/>
</g>
<!-- SyncRepositories&#45;&gt;DependencyLayer -->
<g id="edge5" class="edge">
<title>SyncRepositories&#45;&gt;DependencyLayer</title>
<path fill="none" stroke="black" d="M399.85,-110.24C402.58,-109.46 405.29,-108.71 407.98,-108 496.55,-84.66 524.42,-93.51 616.72,-72.41"/>
<polygon fill="black" stroke="black" points="617.27,-75.87 626.21,-70.18 615.67,-69.06 617.27,-75.87"/>
</g>
<!-- CreateDeployRepository -->
<g id="node7" class="node">
<title>CreateDeployRepository</title>
<path fill="#b7e0ff" stroke="black" stroke-width="2" d="M582.51,-180C582.51,-180 429.44,-180 429.44,-180 423.44,-180 417.44,-174 417.44,-168 417.44,-168 417.44,-120 417.44,-120 417.44,-114 423.44,-108 429.44,-108 429.44,-108 582.51,-108 582.51,-108 588.51,-108 594.51,-114 594.51,-120 594.51,-120 594.51,-168 594.51,-168 594.51,-174 588.51,-180 582.51,-180"/>
<text text-anchor="middle" x="505.98" y="-148.2" font-family="Arial" font-size="14.00">CreateDeployRepository</text>
<text text-anchor="middle" x="505.98" y="-131.4" font-family="Arial" font-size="14.00">(AWS::Lambda::Function)</text>
</g>
<!-- CreateDeployRepository&#45;&gt;CommonLambdaRole -->
<g id="edge10" class="edge">
<title>CreateDeployRepository&#45;&gt;CommonLambdaRole</title>
<path fill="none" stroke="black" d="M440.44,-107.56C422.79,-98.01 403.55,-87.61 385.4,-77.79"/>
<polygon fill="black" stroke="black" points="387.24,-74.81 376.78,-73.13 383.91,-80.97 387.24,-74.81"/>
</g>
<!-- CreateDeployRepository&#45;&gt;GitLayer -->
<g id="edge8" class="edge">
<title>CreateDeployRepository&#45;&gt;GitLayer</title>
<path fill="none" stroke="black" d="M506.31,-107.7C506.38,-99.93 506.46,-91.57 506.54,-83.43"/>
<polygon fill="black" stroke="black" points="510.04,-83.69 506.63,-73.66 503.04,-83.62 510.04,-83.69"/>
</g>
<!-- CreateDeployRepository&#45;&gt;DependencyLayer -->
<g id="edge9" class="edge">
<title>CreateDeployRepository&#45;&gt;DependencyLayer</title>
<path fill="none" stroke="black" d="M581.21,-107.56C601.85,-97.83 624.38,-87.22 645.54,-77.25"/>
<polygon fill="black" stroke="black" points="646.89,-80.48 654.44,-73.06 643.9,-74.15 646.89,-80.48"/>
</g>
<!-- StateMachine -->
<g id="node8" class="node">
<title>StateMachine</title>
<path fill="#b7e0ff" stroke="black" stroke-width="2" d="M617.91,-288C617.91,-288 394.04,-288 394.04,-288 388.04,-288 382.04,-282 382.04,-276 382.04,-276 382.04,-228 382.04,-228 382.04,-222 388.04,-216 394.04,-216 394.04,-216 617.91,-216 617.91,-216 623.91,-216 629.91,-222 629.91,-228 629.91,-228 629.91,-276 629.91,-276 629.91,-282 623.91,-288 617.91,-288"/>
<text text-anchor="middle" x="505.98" y="-256.2" font-family="Arial" font-size="14.00">StateMachine</text>
<text text-anchor="middle" x="505.98" y="-239.4" font-family="Arial" font-size="14.00">(AWS::StepFunctions::StateMachine)</text>
</g>
<!-- StateMachine&#45;&gt;CheckProjectStatus -->
<g id="edge11" class="edge">
<title>StateMachine&#45;&gt;CheckProjectStatus</title>
<path fill="none" stroke="black" d="M571.18,-215.56C588.74,-206.01 607.88,-195.61 625.93,-185.79"/>
<polygon fill="black" stroke="black" points="627.39,-188.98 634.5,-181.13 624.05,-182.83 627.39,-188.98"/>
</g>
<!-- StateMachine&#45;&gt;SyncRepositories -->
<g id="edge12" class="edge">
<title>StateMachine&#45;&gt;SyncRepositories</title>
<path fill="none" stroke="black" d="M440.77,-215.56C423.21,-206.01 404.07,-195.61 386.02,-185.79"/>
<polygon fill="black" stroke="black" points="387.9,-182.83 377.45,-181.13 384.56,-188.98 387.9,-182.83"/>
</g>
<!-- StateMachine&#45;&gt;CreateDeployRepository -->
<g id="edge13" class="edge">
<title>StateMachine&#45;&gt;CreateDeployRepository</title>
<path fill="none" stroke="black" d="M505.98,-215.7C505.98,-207.93 505.98,-199.57 505.98,-191.43"/>
<polygon fill="black" stroke="black" points="509.48,-191.66 505.98,-181.66 502.48,-191.66 509.48,-191.66"/>
</g>
</g>
</svg>
